<mxfile host="Electron" modified="2023-04-20T14:03:24.515Z" agent="Mozilla/5.0 (X11; Linux x86_64) AppleWebKit/537.36 (KHTML, like Gecko) draw.io/21.1.2 Chrome/106.0.5249.199 Electron/21.4.3 Safari/537.36" etag="b_x-Wk6zKGs8SoC6OdNR" version="21.1.2" type="device">
  <diagram name="Page-1" id="4VmysdJKvYtpYvmq9zTM">
    <mxGraphModel dx="992" dy="635" grid="1" gridSize="10" guides="1" tooltips="1" connect="1" arrows="1" fold="1" page="1" pageScale="1" pageWidth="827" pageHeight="1169" math="0" shadow="0">
      <root>
        <mxCell id="0" />
        <mxCell id="1" parent="0" />
        <mxCell id="LLupJ7Z8etuNSm-FzTXD-1" value="1" style="rounded=0;whiteSpace=wrap;html=1;" vertex="1" parent="1">
          <mxGeometry x="340" y="90" width="210" height="50" as="geometry" />
        </mxCell>
        <mxCell id="LLupJ7Z8etuNSm-FzTXD-2" value="2" style="ellipse;whiteSpace=wrap;html=1;aspect=fixed;" vertex="1" parent="1">
          <mxGeometry x="320" y="160" width="50" height="50" as="geometry" />
        </mxCell>
        <mxCell id="LLupJ7Z8etuNSm-FzTXD-3" value="3" style="rhombus;whiteSpace=wrap;html=1;" vertex="1" parent="1">
          <mxGeometry x="420" y="160" width="60" height="50" as="geometry" />
        </mxCell>
        <mxCell id="LLupJ7Z8etuNSm-FzTXD-4" value="4" style="whiteSpace=wrap;html=1;aspect=fixed;" vertex="1" parent="1">
          <mxGeometry x="520" y="160" width="40" height="40" as="geometry" />
        </mxCell>
      </root>
    </mxGraphModel>
  </diagram>
</mxfile>
